<svg xmlns="http://www.w3.org/2000/svg" width="512" height="512" viewBox="0 0 512 512">
  <defs>
    <linearGradient id="bg" x1="0" y1="0" x2="1" y2="1">
      <stop offset="0" stop-color="#2b1b45"/>
      <stop offset="1" stop-color="#16171d"/>
    </linearGradient>
  </defs>
  <rect width="512" height="512" rx="112" fill="url(#bg)"/>
  <g transform="translate(96 120)">
    <!-- 5 columns x 5 rows contribution grid -->
    <g fill="#39d353">
      <rect x="0"   y="0"   width="52" height="52" rx="12" opacity="0.25"/>
      <rect x="68"  y="0"   width="52" height="52" rx="12" opacity="0.55"/>
      <rect x="136" y="0"   width="52" height="52" rx="12" opacity="1"/>
      <rect x="204" y="0"   width="52" height="52" rx="12" opacity="0.4"/>
      <rect x="272" y="0"   width="52" height="52" rx="12" opacity="0.75"/>

      <rect x="0"   y="68"  width="52" height="52" rx="12" opacity="0.55"/>
      <rect x="68"  y="68"  width="52" height="52" rx="12" opacity="1"/>
      <rect x="136" y="68"  width="52" height="52" rx="12" opacity="0.4"/>
      <rect x="204" y="68"  width="52" height="52" rx="12" opacity="0.85"/>
      <rect x="272" y="68"  width="52" height="52" rx="12" opacity="0.25"/>

      <rect x="0"   y="136" width="52" height="52" rx="12" opacity="1"/>
      <rect x="68"  y="136" width="52" height="52" rx="12" opacity="0.4"/>
      <rect x="136" y="136" width="52" height="52" rx="12" opacity="0.75"/>
      <rect x="204" y="136" width="52" height="52" rx="12" opacity="0.55"/>
      <rect x="272" y="136" width="52" height="52" rx="12" opacity="1"/>

      <rect x="0"   y="204" width="52" height="52" rx="12" opacity="0.4"/>
      <rect x="68"  y="204" width="52" height="52" rx="12" opacity="0.75"/>
      <rect x="136" y="204" width="52" height="52" rx="12" opacity="0.25"/>
      <rect x="204" y="204" width="52" height="52" rx="12" opacity="1"/>
      <rect x="272" y="204" width="52" height="52" rx="12" opacity="0.55"/>
    </g>
  </g>
</svg>
